<svg fill="#fff" height="30" viewBox="0 0 30 30" width="30" xmlns="http://www.w3.org/2000/svg"><path d="m9.9980469 3c-3.859 0-6.9980469 3.1419531-6.9980469 7.001953v10c0 3.859 3.1419531 6.998047 7.001953 6.998047h10c3.859 0 6.998047-3.141953 6.998047-7.001953v-10.0000001c0-3.859-3.141953-6.9980469-7.001953-6.9980469zm12.0019531 4c.552 0 1 .448 1 1s-.448 1-1 1-1-.448-1-1 .448-1 1-1zm-7 2c3.309 0 6 2.691 6 6s-2.691 6-6 6-6-2.691-6-6 2.691-6 6-6zm0 2a4 4 0 0 0 -4 4 4 4 0 0 0 4 4 4 4 0 0 0 4-4 4 4 0 0 0 -4-4z"/></svg>