<?xml version="1.0" standalone="no"?>
<!DOCTYPE svg PUBLIC "-//W3C//DTD SVG 20010904//EN"
 "http://www.w3.org/TR/2001/REC-SVG-20010904/DTD/svg10.dtd">
<svg version="1.0" xmlns="http://www.w3.org/2000/svg"
 width="256.000000pt" height="256.000000pt" viewBox="0 0 256.000000 256.000000"
 preserveAspectRatio="xMidYMid meet">
<metadata>
Created by potrace 1.14, written by Peter Selinger 2001-2017
</metadata>
<g transform="translate(0.000000,256.000000) scale(0.100000,-0.100000)"
fill="#000000" stroke="none">
<path d="M1175 2355 c-5 -2 -44 -11 -85 -20 -359 -82 -655 -444 -717 -875 -10
-65 -10 -308 -1 -365 31 -195 104 -381 204 -519 282 -388 750 -498 1129 -263
223 138 383 369 459 664 25 94 27 116 31 273 5 219 -33 399 -125 580 -170 334
-464 529 -799 528 -47 0 -90 -2 -96 -3z m316 -181 c267 -94 471 -351 538 -680
17 -80 20 -126 17 -244 -2 -80 -7 -158 -10 -175 -82 -377 -294 -631 -595 -714
-109 -30 -268 -24 -369 13 -106 39 -184 89 -268 169 -141 133 -215 273 -281
529 -13 52 -11 334 3 408 38 198 122 364 255 504 100 106 245 191 359 211 19
3 36 8 39 10 2 3 54 3 115 2 93 -3 125 -8 197 -33z"/>
<path d="M1245 1809 c-101 -10 -241 -62 -252 -94 -2 -6 26 -45 62 -89 51 -61
63 -81 55 -91 -17 -21 -29 -12 -100 75 l-65 79 -43 -42 c-79 -77 -132 -182
-146 -288 l-6 -46 126 -1 c69 0 128 -3 131 -6 3 -3 3 -12 0 -21 -5 -12 -28
-15 -132 -15 l-126 0 6 -52 c15 -116 68 -233 151 -335 34 -41 58 -54 66 -34 2
5 40 49 86 99 53 58 88 89 98 85 29 -11 17 -29 -134 -192 l-32 -36 27 -23 c50
-41 181 -100 255 -116 104 -22 167 -25 182 -11 8 9 12 61 11 181 l0 169 -65 6
c-79 8 -148 39 -196 87 -50 50 -63 72 -79 131 -37 142 47 273 191 300 37 7 52
7 63 -4 20 -20 6 -32 -44 -37 -163 -19 -228 -212 -115 -340 114 -130 302 -125
439 12 55 55 105 182 96 243 -2 12 -6 42 -9 66 -10 68 -71 176 -130 227 -28
24 -55 44 -61 44 -5 0 -29 -34 -52 -75 -31 -53 -47 -73 -58 -69 -23 9 -17 34
25 104 l40 65 -40 18 c-51 23 -148 34 -225 26z"/>
</g>
</svg>
